<svg width="44" height="44" viewBox="0 0 44 44" fill="none" xmlns="http://www.w3.org/2000/svg">
<path d="M22.5042 28.4625C24.6431 28.4625 26.4611 27.775 27.9583 26.4C29.4556 25.025 30.2042 23.3597 30.2042 21.4041C30.2042 19.6625 29.6462 18.1885 28.5303 16.9821C27.4144 15.7758 26.0627 15.172 24.475 15.1708C23.0389 15.1708 21.8246 15.6291 20.8322 16.5458C19.8397 17.4625 19.3429 18.593 19.3417 19.9375C19.3417 20.518 19.4566 21.0833 19.6863 21.6333C19.9161 22.1833 20.2443 22.6875 20.6708 23.1458L23.2833 20.5333C23.1917 20.4722 23.1232 20.3958 23.078 20.3041C23.0328 20.2125 23.0096 20.1055 23.0083 19.9833C23.0083 19.6472 23.1458 19.3795 23.4208 19.1803C23.6958 18.9811 24.0472 18.8821 24.475 18.8833C25.0861 18.8833 25.5903 19.1351 25.9875 19.6386C26.3847 20.1422 26.5833 20.746 26.5833 21.45C26.5833 22.3972 26.1934 23.1996 25.4137 23.8571C24.6339 24.5147 23.6793 24.8428 22.55 24.8416C21.1139 24.8416 19.8996 24.2611 18.9072 23.1C17.9147 21.9388 17.4179 20.518 17.4167 18.8375C17.4167 17.9513 17.5847 17.1031 17.9208 16.2928C18.2569 15.4825 18.7306 14.7723 19.3417 14.1625L16.7292 11.55C15.7514 12.4972 15.0028 13.5972 14.4833 14.85C13.9639 16.1027 13.7042 17.4166 13.7042 18.7916C13.7042 21.4805 14.5597 23.7648 16.2708 25.6446C17.9819 27.5244 20.0597 28.4637 22.5042 28.4625ZM11 40.3333V32.45C9.25833 30.8611 7.90656 29.0051 6.94467 26.8821C5.98278 24.7591 5.50122 22.5206 5.5 20.1666C5.5 15.5833 7.10417 11.6875 10.3125 8.47913C13.5208 5.27079 17.4167 3.66663 22 3.66663C25.8194 3.66663 29.2038 4.78985 32.153 7.03629C35.1022 9.28274 37.0193 12.2081 37.9042 15.8125L40.2875 25.2083C40.4403 25.7888 40.3333 26.3162 39.9667 26.7905C39.6 27.2647 39.1111 27.5012 38.5 27.5H34.8333V33C34.8333 34.0083 34.4746 34.8718 33.7572 35.5905C33.0397 36.3091 32.1762 36.6678 31.1667 36.6666H27.5V40.3333H23.8333V33H31.1667V23.8333H36.1167L34.375 16.7291C33.6722 13.9486 32.175 11.6875 29.8833 9.94579C27.5917 8.20413 24.9639 7.33329 22 7.33329C18.4556 7.33329 15.4306 8.57079 12.925 11.0458C10.4194 13.5208 9.16667 16.5305 9.16667 20.075C9.16667 21.9083 9.54128 23.65 10.2905 25.3C11.0397 26.95 12.1012 28.4166 13.475 29.7L14.6667 30.8V40.3333H11Z" fill="white"/>
</svg>
