<svg width="44" height="44" viewBox="0 0 44 44" fill="none" xmlns="http://www.w3.org/2000/svg">
<path d="M1.83337 38.5L22 3.66663L42.1667 38.5H1.83337ZM8.15837 34.8333H35.8417L22 11L8.15837 34.8333ZM22 33C22.5195 33 22.9552 32.824 23.3072 32.472C23.6592 32.12 23.8346 31.6848 23.8334 31.1666C23.8321 30.6484 23.6561 30.2133 23.3054 29.8613C22.9546 29.5093 22.5195 29.3333 22 29.3333C21.4806 29.3333 21.0455 29.5093 20.6947 29.8613C20.3439 30.2133 20.1679 30.6484 20.1667 31.1666C20.1655 31.6848 20.3415 32.1206 20.6947 32.4738C21.0479 32.827 21.483 33.0024 22 33ZM20.1667 27.5H23.8334V18.3333H20.1667V27.5Z" fill="white"/>
</svg>
