<svg width="44" height="44" viewBox="0 0 44 44" fill="none" xmlns="http://www.w3.org/2000/svg">
<path d="M22 29.3333C22.5194 29.3333 22.9551 29.1573 23.3071 28.8053C23.6591 28.4533 23.8345 28.0182 23.8333 27.5C23.8321 26.9817 23.6561 26.5466 23.3053 26.1946C22.9545 25.8426 22.5194 25.6666 22 25.6666C21.4805 25.6666 21.0454 25.8426 20.6946 26.1946C20.3438 26.5466 20.1678 26.9817 20.1666 27.5C20.1654 28.0182 20.3414 28.4539 20.6946 28.8071C21.0478 29.1603 21.483 29.3357 22 29.3333ZM20.1666 23.8333H23.8333V14.6666H20.1666V23.8333ZM16.9583 40.3333L16.225 34.4666C15.8277 34.3138 15.4537 34.1305 15.103 33.9166C14.7522 33.7027 14.4081 33.4736 14.0708 33.2291L8.61662 35.5208L3.57495 26.8125L8.29578 23.2375C8.26523 23.0236 8.24995 22.8176 8.24995 22.6196V21.3821C8.24995 21.1829 8.26523 20.9763 8.29578 20.7625L3.57495 17.1875L8.61662 8.47913L14.0708 10.7708C14.4069 10.5263 14.7583 10.2972 15.125 10.0833C15.4916 9.8694 15.8583 9.68607 16.225 9.53329L16.9583 3.66663H27.0416L27.7749 9.53329C28.1722 9.68607 28.5468 9.8694 28.8988 10.0833C29.2508 10.2972 29.5942 10.5263 29.9291 10.7708L35.3833 8.47913L40.4249 17.1875L35.7041 20.7625C35.7347 20.9763 35.7499 21.1829 35.7499 21.3821V22.6178C35.7499 22.817 35.7194 23.0236 35.6583 23.2375L40.3791 26.8125L35.3374 35.5208L29.9291 33.2291C29.593 33.4736 29.2416 33.7027 28.875 33.9166C28.5083 34.1305 28.1416 34.3138 27.7749 34.4666L27.0416 40.3333H16.9583ZM20.1666 36.6666H23.7875L24.4291 31.8083C25.3763 31.5638 26.2551 31.2051 27.0654 30.7321C27.8758 30.2591 28.6165 29.6859 29.2875 29.0125L33.8249 30.8916L35.6124 27.775L31.6708 24.7958C31.8236 24.368 31.9305 23.9176 31.9916 23.4446C32.0527 22.9716 32.0833 22.4901 32.0833 22C32.0833 21.5098 32.0527 21.0289 31.9916 20.5571C31.9305 20.0853 31.8236 19.6343 31.6708 19.2041L35.6124 16.225L33.8249 13.1083L29.2875 15.0333C28.6152 14.3305 27.8746 13.7426 27.0654 13.2696C26.2563 12.7966 25.3776 12.4373 24.4291 12.1916L23.8333 7.33329H20.2125L19.5708 12.1916C18.6236 12.4361 17.7454 12.7954 16.9363 13.2696C16.1272 13.7438 15.3859 14.3165 14.7125 14.9875L10.175 13.1083L8.38745 16.225L12.3291 19.1583C12.1763 19.6166 12.0694 20.075 12.0083 20.5333C11.9472 20.9916 11.9166 21.4805 11.9166 22C11.9166 22.4888 11.9472 22.9625 12.0083 23.4208C12.0694 23.8791 12.1763 24.3375 12.3291 24.7958L8.38745 27.775L10.175 30.8916L14.7125 28.9666C15.3847 29.6694 16.126 30.2579 16.9363 30.7321C17.7466 31.2063 18.6248 31.5651 19.5708 31.8083L20.1666 36.6666Z" fill="white"/>
</svg>
