<svg width="44" height="44" viewBox="0 0 44 44" fill="none" xmlns="http://www.w3.org/2000/svg">
<path d="M22 40.3333C19.4639 40.3333 17.0805 39.8517 14.85 38.8886C12.6194 37.9255 10.6791 36.6196 9.02913 34.9708C7.37913 33.322 6.07318 31.3817 5.1113 29.15C4.14941 26.9182 3.66785 24.5349 3.66663 22C3.66541 19.4651 4.14696 17.0817 5.1113 14.85C6.07563 12.6182 7.38157 10.6779 9.02913 9.02913C10.6767 7.38035 12.617 6.0744 14.85 5.11129C17.083 4.14818 19.4663 3.66663 22 3.66663C24.5336 3.66663 26.917 4.14818 29.15 5.11129C31.383 6.0744 33.3232 7.38035 34.9708 9.02913C36.6184 10.6779 37.9249 12.6182 38.8905 14.85C39.856 17.0817 40.337 19.4651 40.3333 22C40.3296 24.5349 39.8481 26.9182 38.8886 29.15C37.9292 31.3817 36.6232 33.322 34.9708 34.9708C33.3184 36.6196 31.3781 37.9261 29.15 38.8905C26.9218 39.8548 24.5385 40.3357 22 40.3333ZM22 36.6666C26.0639 36.6666 29.5246 35.2385 32.3821 32.3821C35.2397 29.5258 36.6679 26.0651 36.6666 22C36.6654 17.9348 35.2372 14.4741 32.3821 11.6178C29.527 8.76146 26.0663 7.33329 22 7.33329C17.9336 7.33329 14.4729 8.76207 11.6178 11.6196C8.76268 14.4772 7.33452 17.9373 7.33329 22C7.33207 26.0626 8.76085 29.5234 11.6196 32.3821C14.4784 35.2409 17.9385 36.6691 22 36.6666ZM24.75 19.9833L25.6666 19.4333C25.7277 20.1666 26.018 20.7777 26.5375 21.2666C27.0569 21.7555 27.6833 22 28.4166 22C29.1805 22 29.8301 21.7329 30.3655 21.1988C30.9008 20.6647 31.1679 20.0151 31.1666 19.25C31.1666 18.7916 31.0597 18.3565 30.8458 17.9446C30.6319 17.5327 30.3416 17.204 29.975 16.9583L31.1666 16.2708L30.25 14.6666L23.8333 18.3333L24.75 19.9833ZM19.25 19.9833L20.1666 18.3333L13.75 14.6666L12.8333 16.2708L14.025 16.9583C13.6583 17.2027 13.368 17.5315 13.1541 17.9446C12.9402 18.3577 12.8333 18.7928 12.8333 19.25C12.8333 20.0138 13.101 20.6635 13.6363 21.1988C14.1716 21.7341 14.8206 22.0012 15.5833 22C16.3166 22 16.943 21.7555 17.4625 21.2666C17.9819 20.7777 18.2722 20.1666 18.3333 19.4333L19.25 19.9833ZM22 23.8333C19.8305 23.8333 17.9208 24.5287 16.2708 25.9196C14.6208 27.3105 13.4597 29.0595 12.7875 31.1666H31.2125C30.5402 29.0583 29.3791 27.3087 27.7291 25.9178C26.0791 24.5269 24.1694 23.8321 22 23.8333Z" fill="white"/>
</svg>
