<svg width="44" height="44" viewBox="0 0 44 44" fill="none" xmlns="http://www.w3.org/2000/svg">
<path d="M19.4333 30.4333L32.3583 17.5083L29.7916 14.9416L19.4333 25.3L14.2083 20.075L11.6416 22.6416L19.4333 30.4333ZM22 40.3333C19.4639 40.3333 17.0805 39.8517 14.85 38.8886C12.6194 37.9255 10.6791 36.6196 9.02913 34.9708C7.37913 33.322 6.07318 31.3817 5.1113 29.15C4.14941 26.9182 3.66785 24.5349 3.66663 22C3.66541 19.4651 4.14696 17.0817 5.1113 14.85C6.07563 12.6182 7.38157 10.6779 9.02913 9.02913C10.6767 7.38035 12.617 6.0744 14.85 5.11129C17.083 4.14818 19.4663 3.66663 22 3.66663C24.5336 3.66663 26.917 4.14818 29.15 5.11129C31.383 6.0744 33.3232 7.38035 34.9708 9.02913C36.6184 10.6779 37.9249 12.6182 38.8905 14.85C39.856 17.0817 40.337 19.4651 40.3333 22C40.3296 24.5349 39.8481 26.9182 38.8886 29.15C37.9292 31.3817 36.6232 33.322 34.9708 34.9708C33.3184 36.6196 31.3781 37.9261 29.15 38.8905C26.9218 39.8548 24.5385 40.3357 22 40.3333Z" fill="white"/>
</svg>
