<svg width="100" height="24" viewBox="0 0 100 24" fill="none" xmlns="http://www.w3.org/2000/svg">
<path d="M95.6712 23.5102L95.6875 12.5225C95.6875 11.249 95.361 10.2585 94.7079 9.55105C94.0549 8.83269 93.195 8.4735 92.1283 8.4735C91.4753 8.4735 90.8766 8.62588 90.3324 8.93064C89.7991 9.22452 89.3637 9.67078 89.0263 10.2694C88.6997 10.8572 88.5365 11.5973 88.5365 12.4898L86.8875 11.6572C86.8657 10.4164 87.127 9.32792 87.6712 8.39187C88.2263 7.45581 88.9773 6.732 89.9242 6.22044C90.8712 5.69799 91.9324 5.43677 93.1079 5.43677C95.0127 5.43677 96.4875 6.0082 97.5324 7.15105C98.5773 8.29391 99.0998 9.81228 99.0998 11.7062L99.0834 23.5102H95.6712ZM74.5283 23.5102V5.87758H77.5651V10.9715H77.9569V23.5102H74.5283ZM85.1079 23.5102L85.1242 12.5878C85.1242 11.3034 84.7977 10.2966 84.1447 9.56738C83.5025 8.83813 82.6372 8.4735 81.5487 8.4735C80.4712 8.4735 79.6004 8.84357 78.9365 9.58371C78.2834 10.3238 77.9569 11.2926 77.9569 12.4898L76.3242 11.4449C76.3242 10.2912 76.6018 9.26262 77.1569 8.35922C77.712 7.45582 78.463 6.74289 79.41 6.22044C80.3569 5.69799 81.429 5.43677 82.6263 5.43677C83.878 5.43677 84.9446 5.70343 85.8263 6.23677C86.7079 6.75922 87.3773 7.49391 87.8344 8.44085C88.3025 9.38779 88.5365 10.4871 88.5365 11.7388L88.5202 23.5102H85.1079Z" fill="white"/>
<path d="M62.4065 23.9837C61.1874 23.9837 60.1643 23.7878 59.3371 23.3959C58.5099 23.0041 57.8351 22.4925 57.3126 21.8612C56.801 21.2191 56.4092 20.5225 56.1371 19.7714C55.865 19.0204 55.68 18.2857 55.582 17.5674C55.484 16.849 55.4351 16.2177 55.4351 15.6735V5.87756H58.8963V14.547C58.8963 15.2327 58.9507 15.9401 59.0595 16.6694C59.1793 17.3878 59.397 18.0572 59.7126 18.6776C60.0391 19.298 60.4908 19.7987 61.0677 20.1796C61.6555 20.5606 62.4174 20.751 63.3534 20.751C63.9629 20.751 64.5398 20.6531 65.084 20.4572C65.6283 20.2504 66.1017 19.9238 66.5044 19.4776C66.918 19.0313 67.2391 18.4436 67.4677 17.7143C67.7072 16.985 67.8269 16.098 67.8269 15.0531L69.9493 15.8531C69.9493 17.4531 69.65 18.868 69.0514 20.098C68.4527 21.317 67.5929 22.2694 66.4718 22.9551C65.3507 23.6408 63.9956 23.9837 62.4065 23.9837ZM68.2351 23.5102V18.4163H67.8269V5.87756H71.2718V23.5102H68.2351Z" fill="white"/>
<path d="M49.3536 23.5102V14.8408C49.3536 14.1551 49.2938 13.453 49.174 12.7347C49.0652 12.0054 48.8475 11.3306 48.521 10.7102C48.2053 10.0898 47.7536 9.58909 47.1659 9.20814C46.589 8.82718 45.8325 8.63671 44.8965 8.63671C44.287 8.63671 43.7101 8.74011 43.1659 8.94691C42.6217 9.14283 42.1427 9.46392 41.7291 9.91018C41.3264 10.3564 41.0053 10.9442 40.7659 11.6734C40.5373 12.4027 40.423 13.2898 40.423 14.3347L38.3006 13.5347C38.3006 11.9347 38.5999 10.5251 39.1985 9.30609C39.7972 8.07616 40.657 7.11834 41.7781 6.43263C42.8992 5.74691 44.2543 5.40405 45.8434 5.40405C47.0625 5.40405 48.0856 5.59997 48.9128 5.99181C49.74 6.38365 50.4094 6.90065 50.921 7.54283C51.4434 8.17412 51.8407 8.86528 52.1128 9.6163C52.3849 10.3673 52.57 11.102 52.6679 11.8204C52.7659 12.5387 52.8149 13.17 52.8149 13.7143V23.5102H49.3536ZM36.9618 23.5102V5.87752H40.0149V10.9714H40.423V23.5102H36.9618Z" fill="white"/>
<path d="M26.3295 23.9999C24.4313 23.9999 22.785 23.6027 21.3906 22.8081C19.9962 22.0135 18.9182 20.9197 18.1566 19.5265C17.4067 18.1224 17.0317 16.5061 17.0317 14.6775C17.0317 12.838 17.4184 11.2217 18.1918 9.82851C18.9651 8.42443 20.049 7.33599 21.4433 6.5632C22.8377 5.77953 24.4664 5.3877 26.3295 5.3877C28.2277 5.3877 29.874 5.78497 31.2684 6.57953C32.6628 7.37409 33.7408 8.46797 34.5024 9.86117C35.264 11.2544 35.6449 12.8598 35.6449 14.6775C35.6449 16.5169 35.2582 18.1387 34.4848 19.5428C33.7232 20.936 32.6452 22.0299 31.2508 22.8244C29.8565 23.6081 28.216 23.9999 26.3295 23.9999ZM26.3295 20.7836C28.1457 20.7836 29.4991 20.2176 30.3896 19.0857C31.2918 17.9428 31.743 16.4734 31.743 14.6775C31.743 12.838 31.286 11.3686 30.372 10.2693C29.4698 9.15912 28.1223 8.60402 26.3295 8.60402C25.0992 8.60402 24.0856 8.86525 23.2888 9.3877C22.4921 9.89926 21.9003 10.6122 21.5137 11.5265C21.127 12.4299 20.9336 13.4802 20.9336 14.6775C20.9336 16.5278 21.3906 18.0081 22.3046 19.1183C23.2185 20.2285 24.5602 20.7836 26.3295 20.7836Z" fill="white"/>
<path d="M7.00903 23.5101V5.87748H10.0458V10.155L9.62128 9.59993C9.83897 9.03395 10.122 8.51694 10.4703 8.04891C10.8186 7.57 11.2213 7.17816 11.6784 6.8734C12.1247 6.54687 12.6199 6.29653 13.1641 6.12238C13.7192 5.93735 14.2852 5.8285 14.8621 5.79585C15.439 5.75231 15.9941 5.77952 16.5274 5.87748V9.07748C15.9505 8.9251 15.3084 8.88157 14.6009 8.94687C13.9043 9.01218 13.2621 9.23531 12.6743 9.61626C12.1192 9.97544 11.6784 10.4108 11.3519 10.9224C11.0362 11.4339 10.8077 12.0054 10.6662 12.6367C10.5247 13.2571 10.4539 13.9156 10.4539 14.6122V23.5101H7.00903Z" fill="white"/>
<path d="M0 23.5102V0H3.41224V23.5102H0Z" fill="white"/>
<path d="M26.5102 18.3659C26.3252 15.7207 25.1131 14.7044 22.5079 14.8866C25.1131 14.7044 26.1697 13.4969 25.987 10.8841C26.1697 13.4969 27.3766 14.5461 29.9892 14.3634C27.3766 14.5461 26.3252 15.7207 26.5102 18.3659Z" fill="white" stroke="white" stroke-width="0.75" stroke-linejoin="round"/>
</svg>
