<svg xmlns="http://www.w3.org/2000/svg" width="120" height="32" viewBox="0 0 120 32">
    <g fill="none" fill-rule="evenodd">
        <g fill="#F55500">
            <path d="M76 19v12.888h-1.794v-.952c-.59.686-1.36 1.04-2.311 1.064-.54-.013-1-.127-1.384-.346-.402-.213-.737-.496-1.006-.85-.247-.29-.41-.68-.49-1.176-.097-.472-.146-1.252-.146-2.338 0-1.104.049-1.888.146-2.354.08-.473.243-.854.49-1.143.504-.767 1.301-1.166 2.39-1.195.457 0 .882.096 1.272.29.362.206.708.469 1.04.792V19H76zm-24.84 3.71v5.476c0 .62.168 1.106.507 1.453.333.349.757.524 1.274.524s.938-.175 1.265-.524c.332-.347.5-.832.5-1.453V22.71h1.792v9.178h-1.793v-.982h-.034c-.591.73-1.362 1.094-2.313 1.094-.74-.013-1.406-.289-2.003-.83-.647-.53-.976-1.312-.988-2.348V22.71h1.792zm-36.664-.112c.703.012 1.271.133 1.706.362.43.241.76.517.995.824.354.347.606.775.754 1.282.143.519.215 1.261.215 2.228 0 .968-.072 1.704-.215 2.21-.148.508-.4.948-.754 1.32-.115.136-.254.268-.42.398-.149.147-.34.273-.575.38-.434.254-1.003.385-1.706.398-.68-.013-1.238-.144-1.672-.399-.44-.229-.783-.49-1.028-.777-.332-.372-.578-.812-.738-1.32-.155-.506-.231-1.242-.231-2.21 0-.969.076-1.713.231-2.233.16-.51.406-.937.738-1.285.244-.305.587-.578 1.028-.818.434-.228.992-.348 1.672-.36zm48.77 0c.74 0 1.416.267 2.029.804.607.543.925 1.338.954 2.387v6.099h-1.793v-5.47c0-.643-.167-1.133-.498-1.469-.33-.342-.75-.513-1.265-.513-.518 0-.942.171-1.275.513-.339.336-.508.826-.508 1.47v5.469h-1.792V22.71h1.792v.973h.035c.59-.724 1.364-1.085 2.32-1.085zm-19.706 0c.762 0 1.46.267 2.092.804.626.543.95 1.338.975 2.387v6.099h-1.795v-5.47c0-.643-.172-1.133-.514-1.469-.343-.342-.785-.513-1.327-.513-.54 0-.985.171-1.334.513-.355.336-.532.826-.532 1.47v5.469h-1.793v-5.47c0-.643-.17-1.133-.513-1.469-.347-.342-.79-.513-1.33-.513s-.981.171-1.323.513c-.36.336-.54.826-.54 1.47v5.469h-1.795V22.71h1.797v.973h.034c.61-.724 1.41-1.085 2.403-1.085.637.012 1.151.121 1.541.327.385.23.736.522 1.056.876.72-.813 1.686-1.215 2.898-1.203zm-13.346-2.682v2.794h1.305v1.406h-1.305v5.364c-.012.467.2.695.636.683h.67v1.725h-.935c-.63 0-1.145-.2-1.545-.601-.413-.385-.618-.939-.618-1.662v-5.51h-.898V22.71h.898v-2.794h1.792zm-5.728 2.682c.716.012 1.34.246 1.872.704l-1.306 1.595c-.378-.31-.77-.461-1.177-.461-.46 0-.852.152-1.178.46-.367.3-.556.787-.568 1.459v5.533h-1.792V22.71h1.792v.973h.038c.589-.724 1.363-1.085 2.319-1.085zM4.373 19c1.692.012 2.961.738 3.807 2.174.302.485.493.991.573 1.52.062.532.094 1.448.094 2.75 0 1.385-.049 2.351-.146 2.9-.046.277-.114.524-.206.741-.097.212-.215.434-.351.664-.366.606-.874 1.107-1.526 1.502-.645.425-1.437.637-2.374.637H0V19h4.373zm68.07 5.436c-.425 0-.749.072-.972.221-.248.16-.428.379-.542.657-.11.279-.181.58-.216.906-.034.349-.051.708-.051 1.074 0 .35.017.69.051 1.021.035.35.106.664.216.94.114.268.294.487.542.66.223.165.547.248.972.248.424 0 .76-.09 1.007-.267.247-.172.415-.396.508-.676.115-.277.192-.59.232-.932.011-.337.016-.67.016-.994 0-.354-.004-.695-.016-1.021-.04-.325-.117-.628-.232-.905-.093-.279-.261-.504-.508-.675-.247-.172-.583-.257-1.007-.257zm-57.947 0c-.303 0-.583.062-.84.186-.246.118-.445.28-.6.489-.155.218-.266.473-.334.763-.068.302-.103.774-.103 1.42 0 .64.035 1.108.103 1.404.068.301.18.568.334.799.155.176.354.335.6.47.257.13.537.196.84.196.325 0 .612-.066.858-.196.257-.135.45-.294.582-.47.177-.231.295-.498.351-.8.058-.295.086-.757.086-1.385 0-.658-.028-1.136-.086-1.439-.056-.29-.174-.544-.35-.762-.132-.208-.326-.37-.583-.489-.246-.124-.533-.186-.858-.186zm-10.34-3.599H1.89v9.214h2.268c1.065 0 1.839-.377 2.32-1.126.212-.277.346-.628.403-1.055.047-.384.073-1.074.077-2.075l.001-.28c0-1.122-.026-1.925-.078-2.41-.068-.484-.232-.876-.49-1.178-.527-.75-1.271-1.113-2.233-1.09zm112.19-17.239c1.013.012 1.87.358 2.568 1.036.712.69 1.074 1.641 1.086 2.851v1.516h-5.523c0 .74.205 1.303.615 1.688.38.39.881.586 1.502.586.723 0 1.368-.3 1.937-.898l1.289 1.145c-.906.997-1.97 1.49-3.192 1.478-.468 0-.923-.07-1.366-.212-.223-.077-.438-.18-.649-.31-.222-.112-.43-.25-.623-.416-.376-.342-.68-.819-.914-1.433-.256-.589-.383-1.356-.383-2.3 0-.907.11-1.662.332-2.264.223-.612.507-1.096.853-1.45.354-.36.75-.62 1.188-.779.432-.158.859-.238 1.28-.238zm-58.375 0c.69.012 1.296.159 1.821.441.524.288.98.673 1.368 1.156l-1.318 1.209c-.45-.622-1.051-.946-1.804-.968-1.515-.024-2.285.935-2.308 2.877.023 1.929.793 2.88 2.308 2.85.753-.012 1.354-.332 1.804-.96l1.318 1.215c-.388.457-.844.829-1.369 1.117-.525.298-1.132.454-1.822.465-1.048 0-1.967-.369-2.759-1.105-.82-.738-1.242-1.931-1.264-3.582.022-1.67.444-2.878 1.264-3.627.793-.738 1.712-1.1 2.76-1.088zm-46.112 0c1.115-.012 2.005.206 2.671.654.666.46 1.004 1.25 1.015 2.37v6.267h-1.784v-.804h-.034c-.165.31-.42.54-.767.687-.342.152-.814.228-1.416.228-.99-.011-1.75-.283-2.286-.813-.563-.518-.844-1.181-.844-1.988 0-.772.244-1.412.734-1.919.488-.518 1.204-.783 2.149-.795h2.464v-.974c.012-.815-.594-1.211-1.817-1.187-.444 0-.793.047-1.05.142-.267.113-.477.304-.63.572l-1.4-1.109c.676-.91 1.676-1.355 2.995-1.33zm9.634 0c.69.012 1.297.159 1.821.441.524.288.98.673 1.368 1.156l-1.317 1.209c-.45-.622-1.052-.946-1.803-.968-1.517-.024-2.287.935-2.31 2.877.023 1.929.793 2.88 2.309 2.85.752-.012 1.353-.332 1.804-.96l1.317 1.215c-.388.457-.844.829-1.369 1.117-.524.298-1.132.454-1.822.465-1.047 0-1.967-.369-2.759-1.105-.82-.738-1.242-1.931-1.264-3.582.022-1.67.445-2.878 1.264-3.627.793-.738 1.713-1.1 2.761-1.088zm27.307 0c.7.012 1.267.133 1.7.363.426.242.756.516.99.822.352.348.603.776.75 1.282.143.52.214 1.263.214 2.23 0 .967-.071 1.704-.213 2.211-.148.507-.399.947-.752 1.318-.113.135-.252.269-.418.398-.148.147-.338.274-.572.38-.432.253-.998.387-1.698.398-.678-.011-1.233-.145-1.665-.398-.438-.23-.78-.49-1.024-.779-.33-.37-.575-.81-.734-1.317-.154-.507-.231-1.244-.231-2.211 0-.97.077-1.714.23-2.234.16-.508.404-.936.735-1.285.245-.305.586-.577 1.024-.817.432-.23.987-.35 1.664-.36zm26.458 0c.41 0 .779.027 1.103.079.325.06.63.141.915.246.547.23 1.038.54 1.471.928l-1.104 1.332c-.342-.257-.704-.469-1.087-.636-.376-.149-.81-.223-1.3-.223-.559 0-.95.103-1.172.31-.234.206-.351.473-.351.798-.012.207.077.387.265.54.171.171.472.281.907.329l1.472.115c.924.07 1.591.36 2.002.868.382.497.573 1.127.573 1.888-.012.893-.362 1.582-1.051 2.066-.684.496-1.56.75-2.625.762-1.447 0-2.75-.545-3.907-1.637l1.245-1.275c.725.792 1.66 1.187 2.807 1.187.514 0 .934-.104 1.26-.31.325-.206.487-.496.487-.867 0-.331-.097-.561-.291-.691-.2-.137-.466-.21-.796-.221l-1.574-.143c-.748-.07-1.355-.33-1.822-.779-.48-.437-.725-1.047-.737-1.832.012-.945.334-1.653.967-2.125.616-.473 1.396-.709 2.343-.709zm25.281.112v5.477c0 .62.169 1.104.506 1.453.331.349.753.523 1.268.523.514 0 .934-.174 1.26-.523.33-.349.497-.833.497-1.453V3.71h1.785v9.179h-1.785v-.982h-.035c-.588.729-1.355 1.093-2.302 1.093-.736-.011-1.401-.288-1.994-.83-.645-.53-.973-1.311-.984-2.348V3.71h1.784zm-16.16-.112c.69.012 1.296.159 1.82.441.524.288.98.673 1.368 1.156L86.25 6.404c-.45-.622-1.052-.946-1.804-.968-1.516-.024-2.285.935-2.309 2.877.024 1.929.793 2.88 2.309 2.85.752-.012 1.354-.332 1.804-.96l1.317 1.215c-.387.457-.844.829-1.369 1.117-.524.298-1.132.454-1.822.465-1.047 0-1.967-.369-2.758-1.105-.821-.738-1.242-1.931-1.265-3.582.023-1.67.445-2.878 1.265-3.627.792-.738 1.712-1.1 2.76-1.088zM110.247 0v10.535c0 .418.223.628.669.628h.617v1.726h-.795c-.651 0-1.187-.168-1.609-.5-.444-.34-.667-.912-.667-1.713V0h1.785zM27.946 0v4.685h.034c.588-.724 1.359-1.087 2.311-1.087.736 0 1.41.269 2.02.805.604.541.921 1.338.95 2.386v6.1h-1.785v-5.47c0-.644-.165-1.134-.497-1.47-.326-.343-.745-.513-1.26-.513-.513 0-.936.17-1.268.512-.337.337-.505.827-.505 1.47v5.47H26.16V0h1.785zm9.708 0v4.685h.034c.589-.724 1.36-1.087 2.312-1.087.735 0 1.41.269 2.02.805.604.541.921 1.338.95 2.386v6.1h-1.786v-5.47c0-.644-.165-1.134-.496-1.47-.326-.343-.745-.513-1.26-.513-.514 0-.937.17-1.268.512-.338.337-.506.827-.506 1.47v5.47H35.87V0h1.785zM7.956 0v1.838H1.88v3.809h5.187V7.37H1.88v5.519H0V0h7.956zm56.467 0v4.685h.034c.589-.724 1.36-1.087 2.312-1.087.734 0 1.41.269 2.02.805.603.541.921 1.338.95 2.386v6.1h-1.785v-5.47c0-.644-.166-1.134-.497-1.47-.326-.343-.745-.513-1.26-.513-.514 0-.937.17-1.268.512-.338.337-.506.827-.506 1.47v5.47h-1.785V0h1.785zm26.408 0v4.685h.034c.588-.724 1.357-1.087 2.312-1.087.735 0 1.409.269 2.019.805.604.541.92 1.338.95 2.386v6.1H94.36v-5.47c0-.644-.166-1.134-.497-1.47-.326-.343-.745-.513-1.26-.513-.514 0-.936.17-1.268.512-.337.337-.505.827-.505 1.47v5.47h-1.785V0h1.785zM13.76 9h-2.136c-1.037.025-1.55.395-1.538 1.11 0 .315.133.582.401.801.257.242.681.364 1.273.364.747.011 1.274-.08 1.582-.275.279-.196.418-.64.418-1.332V9zM48.8 5.437c-.302 0-.58.061-.836.186-.246.119-.444.281-.598.488-.153.219-.264.474-.333.764-.068.301-.102.776-.102 1.42 0 .64.034 1.107.102 1.404.069.3.18.568.333.798.154.179.352.335.598.472.256.13.534.195.836.195.324 0 .609-.065.853-.195.256-.137.45-.293.58-.472.177-.23.294-.497.35-.798.057-.297.086-.758.086-1.385 0-.657-.029-1.138-.085-1.44-.058-.289-.174-.544-.35-.763-.132-.207-.325-.37-.58-.488-.245-.125-.53-.186-.854-.186zm67.545-.112c-.535 0-.973.175-1.315.527-.335.369-.52.914-.554 1.634h3.738c-.023-.72-.208-1.265-.555-1.634-.341-.352-.78-.527-1.314-.527z"/>
        </g>
    </g>
</svg>
