<svg width="170" height="48" viewBox="0 0 170 48" fill="none" xmlns="http://www.w3.org/2000/svg">
<path d="M71.3637 9.47944V17.4893C71.3637 21.2997 69.3493 23.2049 65.3204 23.2049C63.3401 23.2049 61.8379 22.7337 60.8136 21.7913C59.7893 20.8353 59.2772 19.4013 59.2772 17.4893V9.47944H62.8212V17.5508C62.8212 19.4765 63.6543 20.4393 65.3204 20.4393C67.0003 20.4393 67.8402 19.4765 67.8402 17.5508V9.47944H71.3637ZM81.1756 12.7571V15.2359H78.1232V19.3535C78.1232 19.8452 78.2393 20.2003 78.4715 20.4188C78.7173 20.6237 79.0519 20.7261 79.4753 20.7261C79.803 20.7261 80.083 20.6919 80.3152 20.6237C80.5473 20.5417 80.7659 20.4256 80.9707 20.2754L81.3394 22.4264C80.998 22.6586 80.561 22.8498 80.0284 23C79.5094 23.1366 78.9836 23.2049 78.451 23.2049C77.2765 23.2049 76.3478 22.959 75.6649 22.4674C74.9957 21.9621 74.6543 21.1153 74.6406 19.9271V15.2359H72.8789V12.7571H74.6406V10.4628L78.1232 9.49992V12.7571H81.1756ZM87.7827 23.2049C86.0755 23.2049 84.7235 22.7405 83.7265 21.8118C82.7432 20.8831 82.2515 19.5721 82.2515 17.8786C82.2515 16.7587 82.4769 15.8027 82.9276 15.0106C83.3919 14.2048 84.0201 13.5971 84.8123 13.1873C85.618 12.764 86.5535 12.5523 87.6188 12.5523C88.6977 12.5523 89.6127 12.764 90.3639 13.1873C91.1287 13.5971 91.7091 14.1707 92.1052 14.9081C92.5012 15.632 92.6993 16.4651 92.6993 17.4074C92.6993 17.6669 92.6856 17.9195 92.6583 18.1654C92.6446 18.3975 92.631 18.5956 92.6173 18.7595H85.6317C85.7273 19.4696 85.9595 19.9818 86.3282 20.2959C86.6969 20.5963 87.1818 20.7466 87.7827 20.7466C88.3017 20.7466 88.7114 20.6441 89.0118 20.4393C89.3259 20.2344 89.5581 19.9476 89.7083 19.5789L92.4944 20.5007C92.3032 21.088 91.9686 21.5865 91.4906 21.9962C91.0263 22.3923 90.4663 22.6927 89.8108 22.8976C89.1689 23.1024 88.4929 23.2049 87.7827 23.2049ZM87.6188 14.9901C86.5126 14.9901 85.857 15.6251 85.6522 16.8953H89.4011C89.2508 15.6251 88.6567 14.9901 87.6188 14.9901ZM100.755 23V9.47944H107.331C108.997 9.47944 110.226 9.79355 111.018 10.4218C111.81 11.05 112.206 11.9514 112.206 13.1259C112.206 13.8907 111.981 14.5531 111.53 15.113C111.08 15.6729 110.39 16.0212 109.461 16.1578V16.1783C110.499 16.3148 111.271 16.6767 111.776 17.264C112.295 17.8376 112.555 18.5341 112.555 19.3535C112.555 20.5144 112.138 21.4158 111.305 22.0577C110.486 22.6859 109.263 23 107.638 23H100.755ZM104.156 15.0106H106.716C107.973 15.0106 108.601 14.5189 108.601 13.5356C108.601 12.5523 107.973 12.0606 106.716 12.0606H104.156V15.0106ZM104.156 20.5212H107.044C108.314 20.5212 108.949 20.0159 108.949 19.0053C108.949 18.022 108.314 17.5303 107.044 17.5303H104.156V20.5212ZM119.512 23.2049C117.804 23.2049 116.452 22.7405 115.455 21.8118C114.472 20.8831 113.98 19.5721 113.98 17.8786C113.98 16.7587 114.206 15.8027 114.656 15.0106C115.121 14.2048 115.749 13.5971 116.541 13.1873C117.347 12.764 118.282 12.5523 119.348 12.5523C120.427 12.5523 121.342 12.764 122.093 13.1873C122.858 13.5971 123.438 14.1707 123.834 14.9081C124.23 15.632 124.428 16.4651 124.428 17.4074C124.428 17.6669 124.414 17.9195 124.387 18.1654C124.373 18.3975 124.36 18.5956 124.346 18.7595H117.361C117.456 19.4696 117.688 19.9818 118.057 20.2959C118.426 20.5963 118.911 20.7466 119.512 20.7466C120.03 20.7466 120.44 20.6441 120.741 20.4393C121.055 20.2344 121.287 19.9476 121.437 19.5789L124.223 20.5007C124.032 21.088 123.697 21.5865 123.219 21.9962C122.755 22.3923 122.195 22.6927 121.54 22.8976C120.898 23.1024 120.222 23.2049 119.512 23.2049ZM119.348 14.9901C118.241 14.9901 117.586 15.6251 117.381 16.8953H121.13C120.98 15.6251 120.386 14.9901 119.348 14.9901ZM131.231 12.5523C132.269 12.5523 133.13 12.7025 133.813 13.003C134.509 13.3034 135.049 13.6927 135.431 14.1707C135.813 14.6487 136.059 15.1676 136.168 15.7276L132.952 16.7928C132.87 16.2056 132.7 15.7685 132.44 15.4817C132.181 15.1813 131.812 15.0311 131.334 15.0311C130.678 15.0311 130.18 15.2632 129.838 15.7276C129.511 16.1919 129.347 16.9226 129.347 17.9195C129.347 18.9302 129.524 19.654 129.879 20.091C130.248 20.5144 130.74 20.7261 131.354 20.7261C132.324 20.7261 132.891 20.173 133.055 19.0667L136.189 20.0705C136.039 20.9583 135.54 21.7026 134.694 22.3035C133.86 22.9044 132.754 23.2049 131.375 23.2049C129.695 23.2049 128.35 22.7405 127.339 21.8118C126.342 20.8695 125.844 19.5584 125.844 17.8786C125.844 16.7587 126.069 15.8027 126.52 15.0106C126.984 14.2185 127.619 13.6107 128.425 13.1873C129.231 12.764 130.166 12.5523 131.231 12.5523ZM141.482 8.41418V17.0591L145.374 12.7571H149.246L145.477 16.7723L149.472 23H145.62L143.141 18.8004L141.482 20.6441V23H138V8.41418H141.482ZM155.181 23.2049C153.474 23.2049 152.122 22.7405 151.125 21.8118C150.142 20.8831 149.65 19.5721 149.65 17.8786C149.65 16.7587 149.876 15.8027 150.326 15.0106C150.791 14.2048 151.419 13.5971 152.211 13.1873C153.017 12.764 153.952 12.5523 155.018 12.5523C156.096 12.5523 157.011 12.764 157.763 13.1873C158.527 13.5971 159.108 14.1707 159.504 14.9081C159.9 15.632 160.098 16.4651 160.098 17.4074C160.098 17.6669 160.084 17.9195 160.057 18.1654C160.043 18.3975 160.03 18.5956 160.016 18.7595H153.03C153.126 19.4696 153.358 19.9818 153.727 20.2959C154.096 20.5963 154.581 20.7466 155.181 20.7466C155.7 20.7466 156.11 20.6441 156.411 20.4393C156.725 20.2344 156.957 19.9476 157.107 19.5789L159.893 20.5007C159.702 21.088 159.367 21.5865 158.889 21.9962C158.425 22.3923 157.865 22.6927 157.21 22.8976C156.568 23.1024 155.892 23.2049 155.181 23.2049ZM155.018 14.9901C153.911 14.9901 153.256 15.6251 153.051 16.8953H156.8C156.65 15.6251 156.055 14.9901 155.018 14.9901ZM162.046 23V12.7571H165.119L165.262 14.9696C165.508 14.2185 165.884 13.6312 166.389 13.2078C166.908 12.7708 167.571 12.5523 168.376 12.5523C168.636 12.5523 168.854 12.5796 169.032 12.6342C169.223 12.6752 169.373 12.723 169.483 12.7776L169.134 15.6456C168.998 15.6047 168.82 15.5637 168.602 15.5227C168.397 15.4817 168.144 15.4613 167.844 15.4613C167.215 15.4613 166.669 15.6593 166.205 16.0553C165.754 16.4514 165.529 17.0455 165.529 17.8376V23H162.046Z" fill="#323232"/>
<path opacity="0.5" d="M62.5937 41.2711C62.3643 41.2519 62.1348 41.1802 61.9054 41.056C61.6759 40.9317 61.4656 40.8026 61.2744 40.6688C61.0832 40.5349 60.9542 40.4441 60.8872 40.3963C60.7247 40.2338 60.6004 40.0617 60.5144 39.8801C60.4284 39.6889 60.3567 39.4403 60.2993 39.1344C60.2802 39.0197 60.2706 38.9193 60.2706 38.8333C60.2706 38.5465 60.3184 38.1975 60.414 37.7864C60.5192 37.3658 60.6243 37.0408 60.7295 36.8113C60.9398 36.3046 61.4035 35.492 62.1205 34.3735C62.1587 34.3353 62.1826 34.3114 62.1922 34.3018C62.2113 34.2827 62.2161 34.2731 62.2065 34.2731C62.2065 34.2636 62.2065 34.2588 62.2065 34.2588C62.2065 34.1919 62.3451 33.8955 62.6224 33.3697C62.7849 33.1976 62.8662 33.0495 62.8662 32.9252C62.8662 32.8583 62.8518 32.8057 62.8231 32.7674C62.7945 32.7292 62.8327 32.6479 62.9379 32.5237C63.043 32.3898 63.1864 32.2464 63.3681 32.0935C63.5593 31.9309 63.76 31.7923 63.9703 31.6776C64.2285 31.4768 64.4818 31.3765 64.7304 31.3765C64.8068 31.3765 64.869 31.3908 64.9168 31.4195C64.9741 31.4386 65.0076 31.4721 65.0172 31.5199C65.0172 31.5772 65.2084 31.5581 65.5908 31.4625C65.7628 31.4243 65.8871 31.4004 65.9636 31.3908C66.0018 31.343 66.0974 31.3048 66.2504 31.2761C66.4129 31.2378 66.6376 31.1996 66.9244 31.1614C67.0773 31.1709 67.2638 31.1709 67.4836 31.1614C67.7131 31.1518 67.8613 31.1422 67.9282 31.1327C67.9951 31.1136 68.0907 31.1566 68.215 31.2617C68.3488 31.3669 68.454 31.5007 68.5305 31.6633C68.5496 31.7206 68.5591 31.7636 68.5591 31.7923C68.5591 31.9357 68.4683 32.06 68.2867 32.1652C68.105 32.2608 67.8421 32.3277 67.498 32.3659C67.1443 32.4137 66.8336 32.4615 66.5659 32.5093C66.2982 32.5571 65.9636 32.624 65.5621 32.7101L65.2609 32.7674C64.9646 32.8152 64.7447 32.8774 64.6013 32.9539C64.4579 33.0303 64.3049 33.1976 64.1424 33.4558C64.0755 33.5036 63.9895 33.6278 63.8843 33.8286C63.7791 34.0198 63.674 34.2206 63.5688 34.4309L63.282 34.8181C63.0621 35.1144 62.9235 35.3104 62.8662 35.406C62.8184 35.492 62.8088 35.5542 62.8375 35.5924C62.8757 35.602 62.9426 35.6163 63.0382 35.6354C63.1434 35.6546 63.2294 35.6689 63.2964 35.6785C63.3824 35.6307 63.5019 35.5972 63.6549 35.5781C63.8078 35.559 63.9178 35.5398 63.9847 35.5207L64.3002 35.4347C64.8929 35.2817 65.3279 35.1718 65.6051 35.1049C65.8823 35.0379 66.0879 34.9949 66.2217 34.9758C66.2695 34.9376 66.3269 34.9184 66.3938 34.9184C66.499 34.9184 66.5993 34.971 66.6949 35.0762C66.8001 35.1718 66.8766 35.2865 66.9244 35.4203C66.9626 35.5542 66.9817 35.6402 66.9817 35.6785C66.9817 35.841 66.8861 35.9653 66.6949 36.0513C66.5037 36.1278 66.1213 36.2329 65.5477 36.3668C64.716 36.5675 64.195 36.6966 63.9847 36.754C63.3633 36.9356 62.9044 37.0264 62.608 37.0264C62.3595 37.0264 62.24 36.9452 62.2495 36.7826C62.1635 36.7348 62.0631 36.8209 61.9484 37.0408C61.8337 37.2606 61.7333 37.5331 61.6473 37.8581C61.5708 38.1832 61.5325 38.4652 61.5325 38.7042C61.5325 38.8285 61.5469 38.9336 61.5756 39.0197C61.6616 39.2491 61.7907 39.4451 61.9627 39.6076C62.1348 39.7606 62.3738 39.8801 62.6797 39.9661C62.7467 39.9757 62.8279 39.9852 62.9235 39.9948C63.0287 40.0044 63.1482 40.0091 63.282 40.0091C63.4732 40.0091 63.6644 39.9709 63.8556 39.8944C64.6013 39.7701 65.1271 39.5981 65.433 39.3782C65.4808 39.3591 65.5238 39.3256 65.5621 39.2778C65.6099 39.23 65.6529 39.2061 65.6911 39.2061L65.6768 39.2348C65.6768 39.2443 65.7055 39.2252 65.7628 39.1774C65.8202 39.1201 65.8823 39.0627 65.9493 39.0053C66.2169 38.7759 66.5133 38.6612 66.8383 38.6612C66.9531 38.6612 67.0487 38.6803 67.1251 38.7185C67.2112 38.7472 67.259 38.7759 67.2685 38.8046C67.3259 38.9002 67.2972 39.0531 67.1825 39.2635C67.0678 39.4738 66.8861 39.6937 66.6376 39.9231C66.3986 40.1525 66.1309 40.3533 65.8345 40.5254C65.3661 40.7739 64.8403 40.9556 64.2571 41.0703C63.6835 41.1946 63.1291 41.2615 62.5937 41.2711ZM68.7891 40.3246C68.6553 40.2195 68.5501 40.1191 68.4736 40.0235C68.3972 39.9279 68.3733 39.794 68.4019 39.622C68.4306 39.2969 68.5023 38.9193 68.617 38.4891L68.6887 38.2023C68.7174 37.9442 68.8656 37.4375 69.1333 36.6823C69.4105 35.9175 69.64 35.4012 69.8216 35.1335C69.9172 35.0379 70.0797 34.9901 70.3092 34.9901C70.5004 34.9901 70.6342 35.0284 70.7107 35.1049C70.7872 35.1622 70.8254 35.2578 70.8254 35.3917C70.8254 35.6115 70.6868 35.9987 70.4095 36.5532L70.2661 36.8543C70.1992 36.9786 70.1419 37.0933 70.0941 37.1985C70.0558 37.3037 70.0606 37.3515 70.1084 37.3419C70.2136 37.1603 70.4669 36.9117 70.8684 36.5962C71.2795 36.2807 71.5615 36.0848 71.7145 36.0083C71.7814 35.97 71.8674 35.9318 71.9726 35.8936C72.0778 35.8553 72.1495 35.8266 72.1877 35.8075C72.3598 35.7215 72.5557 35.6785 72.7756 35.6785C72.9286 35.6785 73.0576 35.7024 73.1628 35.7502C73.2775 35.7884 73.354 35.8505 73.3922 35.9366C73.4018 36.0035 73.4257 36.0561 73.4639 36.0943C73.5117 36.1326 73.5452 36.1565 73.5643 36.166C73.593 36.166 73.6121 36.1804 73.6217 36.209C73.6312 36.2282 73.636 36.2425 73.636 36.2521C73.636 36.3285 73.5691 36.4289 73.4353 36.5532C73.3014 36.6679 73.1628 36.7301 73.0194 36.7396C72.9142 36.7492 72.8043 36.7731 72.6896 36.8113C72.5749 36.8496 72.4601 36.8974 72.3454 36.9547L71.9726 37.1698C71.6476 37.3323 71.3703 37.4949 71.1409 37.6574C70.921 37.8103 70.6963 38.0111 70.4669 38.2597C70.4191 38.3075 70.3474 38.3744 70.2518 38.4604C70.1658 38.5465 70.0893 38.6468 70.0224 38.7616C69.9554 38.8285 69.8837 39.0053 69.8073 39.2921C69.7403 39.5694 69.7069 39.7415 69.7069 39.8084C69.6973 39.8371 69.6782 39.8944 69.6495 39.9805C69.6208 40.0665 69.5778 40.143 69.5205 40.2099C69.4344 40.3151 69.3627 40.3915 69.3054 40.4393C69.248 40.4871 69.1859 40.511 69.1189 40.511C69.0233 40.511 68.9134 40.4489 68.7891 40.3246ZM79.3033 37.3562C79.3033 37.5092 79.2268 37.9012 79.0739 38.5321C79.0548 38.6182 79.0117 38.8046 78.9448 39.0914C78.8875 39.3686 78.854 39.5789 78.8444 39.7223C78.8444 39.8275 78.8636 39.9374 78.9018 40.0522C78.9496 40.1573 78.9735 40.2195 78.9735 40.2386C78.9735 40.3342 78.9305 40.4298 78.8444 40.5254C78.7584 40.6114 78.6485 40.6544 78.5146 40.6544C78.2756 40.6544 78.0701 40.5541 77.898 40.3533C77.7259 40.143 77.6399 39.8705 77.6399 39.5359C77.6399 39.2491 77.745 38.7138 77.9554 37.9298C77.9745 37.8247 77.9888 37.7482 77.9984 37.7004C78.0175 37.643 78.0271 37.5952 78.0271 37.557C78.0271 37.5092 78.0127 37.4853 77.984 37.4853C77.9171 37.4853 77.8215 37.5331 77.6972 37.6287C77.573 37.7147 77.4391 37.8151 77.2957 37.9298L76.9372 38.231C76.7843 38.3266 76.464 38.5895 75.9764 39.0197C75.9095 39.0675 75.747 39.2013 75.4889 39.4212C75.2403 39.6315 75.0969 39.7367 75.0587 39.7367C75.0204 39.7367 74.9344 39.708 74.8006 39.6506C74.6763 39.5837 74.5568 39.5025 74.4421 39.4069C74.3369 39.3113 74.2843 39.2013 74.2843 39.077C74.2843 38.9336 74.3704 38.6038 74.5424 38.0876C74.7145 37.5713 74.9201 37.0647 75.1591 36.5675C75.1877 36.4911 75.2212 36.3477 75.2594 36.1373C75.2977 35.7932 75.3598 35.5781 75.4459 35.492C75.5032 35.3964 75.5845 35.3486 75.6896 35.3486C75.8808 35.3486 76.0577 35.4442 76.2202 35.6354C76.3923 35.8266 76.4783 36.037 76.4783 36.2664C76.4783 36.4289 76.4305 36.644 76.3349 36.9117C76.2489 37.1698 76.1868 37.3228 76.1485 37.3706C76.1772 37.3515 76.2346 37.3037 76.3206 37.2272C76.4162 37.1411 76.5405 37.0503 76.6934 36.9547C77.0185 36.7062 77.2623 36.5389 77.4248 36.4528C77.5873 36.3572 77.702 36.2855 77.7689 36.2377C77.8072 36.209 77.8359 36.1899 77.855 36.1804C77.8837 36.1612 77.9028 36.1517 77.9123 36.1517C77.941 36.1421 77.9936 36.123 78.0701 36.0943C78.1561 36.0561 78.223 36.037 78.2708 36.037C78.4142 36.037 78.5624 36.0895 78.7154 36.1947C78.8779 36.2903 78.9592 36.3907 78.9592 36.4958C78.9592 36.5245 78.9926 36.5771 79.0595 36.6536C79.1265 36.7205 79.1838 36.8065 79.2316 36.9117C79.2794 37.0073 79.3033 37.1555 79.3033 37.3562ZM81.0649 40.4107C81.0362 40.3533 80.9549 40.2768 80.8211 40.1812C80.6872 40.0856 80.6203 40.0283 80.6203 40.0091C80.6203 39.9709 80.5964 39.9183 80.5486 39.8514C80.5104 39.7749 80.4721 39.708 80.4339 39.6506C80.3574 39.5742 80.41 39.3256 80.5916 38.905C80.7733 38.4843 81.0171 37.9872 81.323 37.4136C81.3803 37.3562 81.452 37.2559 81.5381 37.1125C81.6337 36.9691 81.6958 36.8878 81.7245 36.8687C81.7245 36.8304 81.7388 36.797 81.7675 36.7683C81.7962 36.7301 81.8297 36.7109 81.8679 36.7109L81.9826 36.4815C82.0209 36.3955 82.2073 36.1899 82.5419 35.8649C82.8765 35.5398 83.1394 35.32 83.3306 35.2052C83.5122 35.081 83.7082 35.0188 83.9185 35.0188C84.148 35.0188 84.3439 35.0857 84.5065 35.2196L84.8936 35.5494C85.1804 35.7884 85.343 35.927 85.3812 35.9653L85.9118 36.4385L85.668 37.1555C85.582 37.4136 85.5389 37.6574 85.5389 37.8868C85.5389 38.2501 85.6393 38.5895 85.8401 38.905C85.8879 39.0101 85.95 39.0914 86.0265 39.1487C86.1125 39.2061 86.2225 39.2443 86.3563 39.2635C86.5666 39.3017 86.6718 39.4069 86.6718 39.5789C86.6718 39.7893 86.6336 39.947 86.5571 40.0522C86.4806 40.1573 86.3898 40.2242 86.2846 40.2529C86.1317 40.272 86.0265 40.2816 85.9691 40.2816C85.6919 40.2816 85.4386 40.2099 85.2091 40.0665C84.9797 39.9231 84.7789 39.6793 84.6068 39.3352C84.5686 39.2778 84.516 39.1726 84.4491 39.0197C84.3917 38.8667 84.3583 38.7616 84.3487 38.7042C84.2818 38.7998 84.1719 38.9241 84.0189 39.077C83.0342 40.0713 82.236 40.5684 81.6241 40.5684C81.4138 40.5684 81.2274 40.5158 81.0649 40.4107ZM81.8536 39.2204C82.0065 39.2396 82.3029 39.0675 82.7426 38.7042C82.7904 38.666 82.843 38.6229 82.9004 38.5751C82.9577 38.5178 83.0199 38.4604 83.0868 38.4031C83.3545 38.1832 83.56 38.0015 83.7034 37.8581C83.8564 37.7052 84.0093 37.5235 84.1623 37.3132L84.4778 36.797C84.3822 36.5867 84.2961 36.448 84.2197 36.3811C84.1432 36.3046 84.0667 36.2664 83.9902 36.2664C83.799 36.2664 83.56 36.4385 83.2732 36.7826C82.9864 37.1172 82.6423 37.6287 82.2407 38.317C82.1356 38.4891 82.0495 38.6707 81.9826 38.8619C81.9157 39.0436 81.8727 39.1631 81.8536 39.2204ZM83.3449 34.5599C83.2589 34.4835 83.1872 34.3687 83.1298 34.2158C83.0725 34.0533 83.0533 33.9433 83.0725 33.886C83.1011 33.7808 83.1537 33.647 83.2302 33.4844C83.3067 33.3124 83.4071 33.1737 83.5313 33.0686C83.56 33.0495 83.5983 33.0112 83.6461 32.9539C83.6939 32.8965 83.7417 32.863 83.7895 32.8535C83.8755 32.7961 83.9568 32.7674 84.0332 32.7674C84.2244 32.7674 84.4013 32.9108 84.5638 33.1976C84.6403 33.3697 84.6785 33.5036 84.6785 33.5992C84.6785 33.7043 84.6451 33.8143 84.5782 33.929C84.5208 34.0341 84.4204 34.168 84.277 34.3305C84.0763 34.5982 83.8851 34.732 83.7034 34.732C83.5791 34.732 83.4596 34.6747 83.3449 34.5599ZM85.5676 34.5599C85.4816 34.4835 85.4099 34.3687 85.3525 34.2158C85.2952 34.0533 85.276 33.9433 85.2952 33.886C85.3238 33.7808 85.3764 33.647 85.4529 33.4844C85.5294 33.3124 85.6298 33.1737 85.754 33.0686C85.7827 33.0495 85.821 33.0112 85.8688 32.9539C85.9166 32.8965 85.9644 32.863 86.0122 32.8535C86.0982 32.7961 86.1795 32.7674 86.2559 32.7674C86.4471 32.7674 86.624 32.9108 86.7865 33.1976C86.863 33.3697 86.9012 33.5036 86.9012 33.5992C86.9012 33.7043 86.8678 33.8143 86.8009 33.929C86.7435 34.0341 86.6431 34.168 86.4997 34.3305C86.299 34.5982 86.1078 34.732 85.9261 34.732C85.8018 34.732 85.6823 34.6747 85.5676 34.5599ZM87.8388 40.1669C87.6667 40.1382 87.509 40.0426 87.3656 39.8801C87.2222 39.7176 87.1505 39.5311 87.1505 39.3208C87.1505 39.0914 87.2939 38.5034 87.5807 37.557C87.6285 37.3084 87.7336 36.9882 87.8962 36.5962C87.9535 36.4337 87.987 36.3381 87.9965 36.3094C88.1686 35.7358 88.4028 35.0332 88.6992 34.2014L88.8283 33.8573C89.1629 32.9491 89.3636 32.3946 89.4305 32.1938L89.66 31.5629C89.66 31.4864 89.7126 31.4147 89.8177 31.3478C89.9324 31.2713 90.028 31.2331 90.1045 31.2331C90.2575 31.2331 90.4057 31.3334 90.5491 31.5342C90.6925 31.735 90.7689 31.9453 90.7785 32.1652C90.7785 32.2799 90.7546 32.385 90.7068 32.4806C90.4869 32.9586 90.2145 33.6995 89.8894 34.7033C89.746 35.124 89.6026 35.5255 89.4592 35.9079C89.3158 36.2807 89.2011 36.5484 89.1151 36.7109L88.9573 37.0264L88.7566 37.7864C88.7566 37.8151 88.7518 37.839 88.7422 37.8581C88.7327 37.8773 88.7279 37.8916 88.7279 37.9012C88.7279 37.9298 88.7327 37.9442 88.7422 37.9442L88.986 37.7004C89.2632 37.4232 89.5931 37.1411 89.9755 36.8543C90.2909 36.6345 90.4535 36.5102 90.463 36.4815C90.4726 36.4528 90.5108 36.4098 90.5777 36.3524L90.7211 36.2377C91.0271 36.0178 91.3569 35.9079 91.7106 35.9079C91.8158 35.9079 91.94 35.9605 92.0834 36.0656C92.2268 36.1708 92.3463 36.319 92.4419 36.5102C92.5471 36.6918 92.5997 36.8878 92.5997 37.0981V37.2128V37.3132C92.5997 37.5522 92.5519 37.8677 92.4563 38.2597C92.3702 38.6421 92.3224 38.8619 92.3129 38.9193C92.3607 38.9193 92.4324 38.9097 92.528 38.8906C92.6714 38.8906 92.7718 38.905 92.8291 38.9336C92.896 38.9623 92.9534 39.0006 93.0012 39.0484C93.049 39.0962 93.092 39.1248 93.1303 39.1344C93.1494 39.1535 93.1589 39.1822 93.1589 39.2204C93.1589 39.4403 93.0394 39.6315 92.8004 39.794C92.5614 39.9566 92.332 40.0474 92.1121 40.0665C91.8444 40.0665 91.6293 39.9661 91.4668 39.7654C91.3043 39.5646 91.223 39.3208 91.223 39.034C91.223 38.9193 91.2278 38.8046 91.2374 38.6899C91.2469 38.5751 91.2565 38.4748 91.2661 38.3887C91.2947 38.1975 91.3091 38.0446 91.3091 37.9298C91.3091 37.8056 91.2947 37.7243 91.2661 37.6861C91.2469 37.6383 91.2087 37.6144 91.1513 37.6144C90.9601 37.6144 90.6255 37.7912 90.1475 38.1449C89.6791 38.4891 89.2011 38.9384 88.7135 39.4929C88.4076 39.9422 88.116 40.1669 87.8388 40.1669ZM95.432 40.4107C95.3555 40.4107 95.2456 40.3915 95.1022 40.3533C94.9684 40.3151 94.8871 40.2816 94.8584 40.2529C94.8011 40.2051 94.7437 40.1334 94.6863 40.0378C94.629 39.9327 94.6003 39.8132 94.6003 39.6793C94.6003 39.469 94.6768 39.2491 94.8297 39.0197C94.8871 38.905 95.0305 38.5082 95.2599 37.8295L95.5467 37.0408C95.5659 36.8782 95.5563 36.7635 95.5181 36.6966C95.4798 36.6201 95.3986 36.5771 95.2743 36.5675C95.1691 36.5675 95.0926 36.5341 95.0448 36.4672C94.997 36.3907 94.9731 36.2712 94.9731 36.1087C95.0018 35.8314 95.1118 35.6307 95.303 35.5064C95.4559 35.4299 95.6662 35.3917 95.9339 35.3917C96.1729 35.3917 96.3307 35.4251 96.4071 35.492C96.4836 35.5494 96.5505 35.6785 96.6079 35.8792C96.6653 36.08 96.7083 36.2664 96.737 36.4385C96.7848 36.4098 96.909 36.2807 97.1098 36.0513L97.4253 35.7215C97.5878 35.6068 97.7742 35.4968 97.9845 35.3917C98.1949 35.2865 98.343 35.2339 98.4291 35.2339C98.5247 35.2339 98.649 35.2817 98.8019 35.3773C98.9549 35.4729 99.0553 35.5637 99.1031 35.6498C99.2465 35.9175 99.3182 36.1373 99.3182 36.3094C99.3182 36.4433 99.2847 36.5484 99.2178 36.6249C98.9597 36.9499 98.6729 37.1125 98.3574 37.1125C98.2809 37.1125 98.2188 37.1077 98.171 37.0981C98.1232 37.0886 98.0658 37.0216 97.9989 36.8974C97.932 36.7731 97.8937 36.6775 97.8842 36.6106C97.8842 36.5819 97.8125 36.6392 97.6691 36.7826C97.5352 36.9165 97.4492 37.0025 97.4109 37.0408L97.1672 37.2989C97.0142 37.4805 96.8565 37.7195 96.6939 38.0159C96.541 38.3122 96.3115 38.7616 96.0056 39.3638L95.8192 39.8084C95.7236 40.0283 95.6519 40.186 95.6041 40.2816C95.5563 40.3676 95.4989 40.4107 95.432 40.4107ZM103.136 40.6831C103.05 40.5971 102.978 40.4871 102.92 40.3533C102.873 40.2099 102.811 39.9948 102.734 39.708C102.715 39.6506 102.705 39.5694 102.705 39.4642C102.705 39.3495 102.705 39.2682 102.705 39.2204C102.667 39.3065 102.619 39.4021 102.562 39.5072C102.505 39.6028 102.447 39.6698 102.39 39.708C102.17 39.9279 101.95 40.0904 101.73 40.1956C101.424 40.3868 101.161 40.4824 100.942 40.4824C100.674 40.4824 100.444 40.3581 100.253 40.1095C99.9473 39.861 99.7944 39.5646 99.7944 39.2204C99.7944 39.1726 99.8039 39.0818 99.823 38.948C99.8422 38.5943 99.89 38.2549 99.9664 37.9298C100.052 37.6048 100.21 37.1889 100.44 36.6823L100.87 35.8219L101.099 35.3773C101.147 35.3582 101.224 35.3486 101.329 35.3486C101.482 35.3486 101.625 35.3773 101.759 35.4347C101.893 35.492 101.964 35.5685 101.974 35.6641C102.003 35.7024 102.017 35.7741 102.017 35.8792C102.017 36.1851 101.888 36.5914 101.63 37.0981L101.515 37.3706C101.343 37.7817 101.219 38.1019 101.142 38.3314C101.066 38.5608 101.028 38.752 101.028 38.905C101.028 39.0579 101.085 39.1583 101.2 39.2061C101.247 39.2348 101.305 39.2491 101.372 39.2491C101.563 39.2491 101.792 39.1009 102.06 38.8046C102.337 38.5082 102.619 38.0111 102.906 37.3132C103.04 36.9882 103.121 36.6536 103.15 36.3094C103.131 36.2043 103.159 36.0895 103.236 35.9653C103.312 35.841 103.413 35.7406 103.537 35.6641C103.575 35.6068 103.628 35.5637 103.695 35.5351C103.762 35.4968 103.805 35.4968 103.824 35.5351L104.053 35.5207C104.082 35.5112 104.125 35.5542 104.182 35.6498C104.249 35.7454 104.297 35.8027 104.326 35.8219C104.421 35.8983 104.469 36.0513 104.469 36.2807C104.469 36.5962 104.354 37.0312 104.125 37.5857C103.943 37.9681 103.819 38.2644 103.752 38.4748C103.695 38.6755 103.661 38.8715 103.652 39.0627C103.652 39.2635 103.666 39.4212 103.695 39.5359C103.733 39.6411 103.819 39.751 103.953 39.8657C104.106 39.9709 104.168 40.2195 104.139 40.6114C104.12 40.6783 104.068 40.7309 103.982 40.7692C103.896 40.8074 103.79 40.8265 103.666 40.8265C103.456 40.8265 103.279 40.7787 103.136 40.6831ZM109.789 40.2816C109.646 40.2816 109.502 40.2434 109.359 40.1669C109.215 40.0904 109.101 39.9757 109.015 39.8227L108.943 39.6793C108.828 39.3543 108.771 39.0388 108.771 38.7329V38.1019C108.771 37.9968 108.761 37.9442 108.742 37.9442C108.666 37.9442 108.336 38.2549 107.753 38.8763C107.342 39.3065 106.983 39.6411 106.677 39.8801C106.381 40.1095 106.175 40.2242 106.061 40.2242C106.022 40.2242 105.932 40.1908 105.788 40.1239C105.645 40.0474 105.554 39.99 105.516 39.9518C105.449 39.8849 105.406 39.8036 105.387 39.708C105.367 39.6124 105.358 39.4308 105.358 39.1631C105.358 38.8572 105.42 38.513 105.544 38.1306C105.669 37.7386 105.879 37.2176 106.175 36.5675C106.252 36.4337 106.328 36.2712 106.405 36.08C106.625 35.5829 106.83 35.2387 107.021 35.0475C107.098 35.0475 107.15 35.0523 107.179 35.0618C107.303 35.0714 107.447 35.1288 107.609 35.2339C107.781 35.3391 107.887 35.4777 107.925 35.6498C107.925 35.8123 107.901 35.9748 107.853 36.1373C107.805 36.2999 107.695 36.5006 107.523 36.7396C107.418 36.883 107.279 37.1937 107.107 37.6717C107.06 37.7482 106.993 37.8677 106.907 38.0302C106.83 38.1832 106.792 38.2692 106.792 38.2883C106.801 38.2979 106.83 38.2788 106.878 38.231C106.926 38.1736 106.974 38.121 107.021 38.0732L107.409 37.6861C108.164 36.9308 108.747 36.5436 109.158 36.5245C109.368 36.5245 109.555 36.6345 109.717 36.8543C109.88 37.0742 109.961 37.3371 109.961 37.643C109.961 37.7004 109.951 37.8629 109.932 38.1306V38.948C110.152 38.8906 110.32 38.838 110.434 38.7902C110.673 38.7042 110.922 38.6516 111.18 38.6325C111.161 38.795 111.07 39.0101 110.907 39.2778C110.755 39.5455 110.573 39.7797 110.363 39.9805C110.152 40.1812 109.961 40.2816 109.789 40.2816ZM116.756 36.4528C116.794 36.5293 116.813 36.6249 116.813 36.7396C116.813 36.9595 116.742 37.165 116.598 37.3562C116.57 37.404 116.517 37.4805 116.44 37.5857C116.364 37.6813 116.297 37.7817 116.24 37.8868C116.182 37.992 116.139 38.1115 116.111 38.2453C116.082 38.427 116.025 38.6468 115.939 38.905C115.862 39.1535 115.809 39.3208 115.781 39.4069C115.704 39.6076 115.618 39.8753 115.523 40.2099L115.293 41.099C115.083 41.8255 114.839 42.3848 114.562 42.7768C114.285 43.1783 114.027 43.446 113.788 43.5798C113.663 43.6276 113.544 43.6515 113.429 43.6515C113.219 43.6515 112.999 43.5798 112.769 43.4364C112.55 43.3026 112.358 43.1161 112.196 42.8771C112.091 42.7337 111.957 42.4613 111.794 42.0598C111.632 41.6678 111.579 41.4575 111.637 41.4288C111.675 41.295 111.813 41.228 112.052 41.228C112.167 41.228 112.272 41.2424 112.368 41.2711C112.463 41.3093 112.516 41.3523 112.526 41.4001C112.612 41.6487 112.717 41.8399 112.841 41.9737C112.918 42.098 112.999 42.1936 113.085 42.2605C113.18 42.3274 113.271 42.3609 113.357 42.3609C113.415 42.3609 113.453 42.3513 113.472 42.3322C113.625 42.2175 113.74 42.0789 113.816 41.9164C113.902 41.7538 114.017 41.4527 114.16 41.0129C114.38 40.2481 114.552 39.7032 114.677 39.3782C114.705 39.273 114.753 39.1535 114.82 39.0197L114.562 39.2204C114.466 39.2969 114.361 39.3782 114.246 39.4642C114.132 39.5407 114.007 39.6076 113.874 39.665C113.807 39.751 113.639 39.794 113.372 39.794C113.171 39.794 112.98 39.7654 112.798 39.708C112.616 39.6124 112.478 39.5025 112.382 39.3782C112.296 39.2539 112.205 39.0675 112.11 38.8189C112.072 38.7424 112.052 38.6229 112.052 38.4604C112.052 38.0493 112.148 37.6096 112.339 37.1411C112.521 36.7683 112.808 36.3716 113.2 35.9509C113.592 35.5303 113.931 35.2769 114.218 35.1909C114.447 35.0762 114.686 35.0188 114.935 35.0188C115.04 35.0188 115.116 35.0284 115.164 35.0475C115.317 35.0666 115.437 35.1001 115.523 35.1479C115.609 35.1957 115.752 35.3056 115.953 35.4777C116.412 35.9366 116.679 36.2616 116.756 36.4528ZM114.806 37.8008C114.978 37.5618 115.092 37.3467 115.15 37.1555C115.217 36.9643 115.241 36.754 115.222 36.5245C115.212 36.2855 115.107 36.166 114.906 36.166C114.705 36.166 114.528 36.2234 114.375 36.3381C114.232 36.4528 114.041 36.6584 113.802 36.9547C113.658 37.1459 113.539 37.3754 113.443 37.643C113.357 37.882 113.314 38.0876 113.314 38.2597C113.314 38.47 113.372 38.599 113.486 38.6468C113.792 38.6373 114.031 38.5847 114.203 38.4891C114.375 38.3935 114.576 38.1641 114.806 37.8008ZM118.98 40.7978C118.684 40.7978 118.407 40.7309 118.149 40.5971C117.89 40.4632 117.685 40.2959 117.532 40.0952C117.379 39.8849 117.303 39.6793 117.303 39.4786C117.303 39.316 117.369 39.2348 117.503 39.2348C117.589 39.2539 117.69 39.3065 117.804 39.3925C117.948 39.4786 118.067 39.5455 118.163 39.5933C118.268 39.6411 118.373 39.665 118.478 39.665C118.641 39.665 118.78 39.6411 118.894 39.5933C119.019 39.5359 119.09 39.4547 119.109 39.3495C119.109 39.3113 119.09 39.23 119.052 39.1057C119.014 38.9719 118.966 38.8524 118.909 38.7472C118.698 38.4317 118.555 38.1258 118.478 37.8295C118.411 37.5235 118.368 37.1698 118.349 36.7683C118.349 36.5484 118.507 36.2855 118.823 35.9796C119.148 35.6737 119.52 35.4012 119.941 35.1622C120.371 34.9232 120.72 34.7894 120.988 34.7607C121.514 34.7607 121.829 34.8037 121.934 34.8898C122.068 34.9949 122.192 35.167 122.307 35.406C122.422 35.645 122.479 35.8458 122.479 36.0083C122.479 36.0752 122.446 36.1612 122.379 36.2664C122.321 36.362 122.283 36.4241 122.264 36.4528L122.135 36.6536L122.035 36.8687C122.016 36.9165 121.982 36.9882 121.934 37.0838C121.896 37.1794 121.858 37.2367 121.82 37.2559C121.791 37.275 121.743 37.2798 121.676 37.2702C121.514 37.2702 121.365 37.1985 121.232 37.0551C121.098 36.9117 121.031 36.754 121.031 36.5819C121.031 36.4576 121.074 36.3333 121.16 36.209C121.246 36.0848 121.289 36.0131 121.289 35.9939C121.289 35.9557 121.246 35.9366 121.16 35.9366C121.036 35.9366 120.844 35.9987 120.586 36.123C120.328 36.2473 120.099 36.4146 119.898 36.6249C119.697 36.8257 119.597 37.0503 119.597 37.2989C119.597 37.4327 119.621 37.5905 119.669 37.7721C119.726 37.9442 119.788 38.0876 119.855 38.2023C119.932 38.2788 120.041 38.5082 120.185 38.8906C120.338 39.2635 120.414 39.5598 120.414 39.7797C120.414 40.1143 120.285 40.3676 120.027 40.5397C119.779 40.7118 119.43 40.7978 118.98 40.7978ZM128.623 36.4958C128.652 36.5628 128.666 36.6392 128.666 36.7253C128.666 36.9738 128.509 37.3897 128.193 37.9729C128.031 38.2692 127.844 38.556 127.634 38.8333C127.424 39.1009 127.223 39.3256 127.032 39.5072C126.965 39.5455 126.879 39.6076 126.774 39.6937C126.678 39.7797 126.592 39.8705 126.515 39.9661C126.324 40.1382 126.09 40.2673 125.813 40.3533C125.536 40.4393 125.249 40.4824 124.952 40.4824C124.646 40.4824 124.374 40.4393 124.135 40.3533C123.896 40.2577 123.743 40.1334 123.676 39.9805C123.676 39.9231 123.667 39.861 123.647 39.794C123.638 39.7271 123.638 39.6793 123.647 39.6506C123.542 39.6506 123.428 39.6411 123.303 39.622C123.189 39.5933 123.126 39.5646 123.117 39.5359C123.126 39.2491 123.16 39.0531 123.217 38.948C123.217 38.9002 123.256 38.7711 123.332 38.5608C123.389 38.4078 123.428 38.2883 123.447 38.2023C123.466 38.1258 123.509 37.9107 123.576 37.557C123.643 37.1937 123.743 36.8543 123.877 36.5389C124.125 35.6593 124.331 35.0332 124.494 34.6603C124.618 34.1823 124.733 33.8047 124.838 33.5275C124.952 33.2502 125.101 32.9156 125.282 32.5237L125.497 32.0791C125.526 32.0218 125.598 31.821 125.712 31.4768C125.76 31.3812 125.827 31.3095 125.913 31.2617C125.999 31.2044 126.09 31.1757 126.186 31.1757C126.3 31.1757 126.401 31.2187 126.487 31.3048C126.506 31.3239 126.544 31.3669 126.602 31.4338C126.668 31.4912 126.716 31.5533 126.745 31.6202C126.774 31.6776 126.788 31.7445 126.788 31.821C126.788 32.0313 126.692 32.3707 126.501 32.8391C126.425 32.9347 126.339 33.1164 126.243 33.3841C126.147 33.6517 126.085 33.8286 126.057 33.9146C125.837 34.4404 125.641 34.971 125.469 35.5064C125.402 35.7454 125.316 35.9987 125.211 36.2664C125.105 36.5341 125.038 36.7109 125.01 36.797L125.397 36.3811C125.712 36.1039 126.085 35.8744 126.515 35.6928C126.946 35.5016 127.299 35.406 127.577 35.406C127.787 35.406 127.997 35.5112 128.208 35.7215C128.418 35.9222 128.557 36.1804 128.623 36.4958ZM126.903 37.8438C127.065 37.6335 127.194 37.4232 127.29 37.2128C127.385 36.993 127.433 36.8018 127.433 36.6392C127.433 36.5532 127.409 36.5102 127.362 36.5102C127.314 36.5102 127.146 36.5675 126.86 36.6823C126.573 36.797 126.396 36.8878 126.329 36.9547C126.329 36.9834 126.305 37.0121 126.257 37.0408C126.21 37.0599 126.176 37.0742 126.157 37.0838C125.841 37.3228 125.617 37.4996 125.483 37.6144C125.349 37.7291 125.23 37.8534 125.124 37.9872L124.938 38.231C124.852 38.3361 124.699 38.556 124.479 38.8906C124.355 39.1296 124.255 39.2969 124.178 39.3925L124.407 39.4069C124.656 39.3877 124.809 39.3782 124.866 39.3782C125.038 39.3782 125.187 39.3638 125.311 39.3352C125.435 39.3065 125.583 39.2396 125.755 39.1344C126.052 38.8954 126.367 38.5512 126.702 38.1019L126.903 37.8438ZM130.978 40.9699C129.888 40.9699 129.343 40.3485 129.343 39.1057C129.343 38.6564 129.453 38.1497 129.673 37.5857C129.902 37.0121 130.184 36.5006 130.519 36.0513C130.863 35.5924 131.203 35.2865 131.537 35.1335C131.719 35.0379 131.929 34.9901 132.168 34.9901C132.598 34.9901 132.971 35.0857 133.287 35.2769C133.612 35.4586 133.774 35.8075 133.774 36.3238C133.774 36.6201 133.674 36.9452 133.473 37.2989C133.272 37.6526 133.019 37.9537 132.713 38.2023C132.417 38.4413 132.125 38.5608 131.838 38.5608C131.408 38.5608 131.045 38.4222 130.749 38.1449C130.586 38.47 130.505 38.7807 130.505 39.077C130.505 39.316 130.533 39.5025 130.591 39.6363C130.648 39.7606 130.782 39.8227 130.992 39.8227C131.193 39.8227 131.356 39.794 131.48 39.7367C131.604 39.6793 131.719 39.6124 131.824 39.5359C131.929 39.4594 132.01 39.4021 132.068 39.3638L132.125 39.3352H132.111C132.283 39.2396 132.407 39.1679 132.484 39.1201C132.57 39.0627 132.641 39.0245 132.699 39.0053C132.842 39.0053 132.976 39.0484 133.1 39.1344C133.225 39.2204 133.287 39.3256 133.287 39.4499C133.287 39.5455 133.201 39.7032 133.029 39.9231C132.857 40.1334 132.68 40.2816 132.498 40.3676L132.326 40.4537H132.34C132.254 40.5684 132.168 40.6258 132.082 40.6258H131.967C131.929 40.7022 131.8 40.7787 131.58 40.8552C131.37 40.9317 131.169 40.9699 130.978 40.9699ZM131.724 37.514C131.991 37.514 132.211 37.3993 132.383 37.1698C132.565 36.9404 132.656 36.7109 132.656 36.4815C132.656 36.3763 132.627 36.2807 132.57 36.1947C132.522 36.1087 132.455 36.0656 132.369 36.0656C132.206 36.0656 132.025 36.1421 131.824 36.2951C131.623 36.448 131.446 36.6488 131.293 36.8974L131.107 37.1985C131.145 37.1794 131.174 37.1698 131.193 37.1698C131.27 37.1698 131.327 37.2033 131.365 37.2702C131.403 37.3371 131.446 37.3945 131.494 37.4423C131.542 37.4901 131.618 37.514 131.724 37.514ZM134.847 40.3246C134.714 40.2195 134.608 40.1191 134.532 40.0235C134.456 39.9279 134.432 39.794 134.46 39.622C134.489 39.2969 134.561 38.9193 134.675 38.4891L134.747 38.2023C134.776 37.9442 134.924 37.4375 135.192 36.6823C135.469 35.9175 135.698 35.4012 135.88 35.1335C135.976 35.0379 136.138 34.9901 136.368 34.9901C136.559 34.9901 136.693 35.0284 136.769 35.1049C136.846 35.1622 136.884 35.2578 136.884 35.3917C136.884 35.6115 136.745 35.9987 136.468 36.5532L136.325 36.8543C136.258 36.9786 136.2 37.0933 136.152 37.1985C136.114 37.3037 136.119 37.3515 136.167 37.3419C136.272 37.1603 136.525 36.9117 136.927 36.5962C137.338 36.2807 137.62 36.0848 137.773 36.0083C137.84 35.97 137.926 35.9318 138.031 35.8936C138.136 35.8553 138.208 35.8266 138.246 35.8075C138.418 35.7215 138.614 35.6785 138.834 35.6785C138.987 35.6785 139.116 35.7024 139.221 35.7502C139.336 35.7884 139.412 35.8505 139.451 35.9366C139.46 36.0035 139.484 36.0561 139.522 36.0943C139.57 36.1326 139.604 36.1565 139.623 36.166C139.651 36.166 139.671 36.1804 139.68 36.209C139.69 36.2282 139.694 36.2425 139.694 36.2521C139.694 36.3285 139.627 36.4289 139.494 36.5532C139.36 36.6679 139.221 36.7301 139.078 36.7396C138.973 36.7492 138.863 36.7731 138.748 36.8113C138.633 36.8496 138.519 36.8974 138.404 36.9547L138.031 37.1698C137.706 37.3323 137.429 37.4949 137.199 37.6574C136.979 37.8103 136.755 38.0111 136.525 38.2597C136.477 38.3075 136.406 38.3744 136.31 38.4604C136.224 38.5465 136.148 38.6468 136.081 38.7616C136.014 38.8285 135.942 39.0053 135.866 39.2921C135.799 39.5694 135.765 39.7415 135.765 39.8084C135.756 39.8371 135.737 39.8944 135.708 39.9805C135.679 40.0665 135.636 40.143 135.579 40.2099C135.493 40.3151 135.421 40.3915 135.364 40.4393C135.306 40.4871 135.244 40.511 135.177 40.511C135.082 40.511 134.972 40.4489 134.847 40.3246ZM140.845 40.4537C140.682 40.4919 140.486 40.4059 140.257 40.1956C140.027 39.9852 139.893 39.7893 139.855 39.6076C139.836 39.512 139.826 39.4308 139.826 39.3638C139.826 38.991 139.946 38.5417 140.185 38.0159C140.424 37.4805 140.744 36.9786 141.146 36.5102C141.557 36.0417 142.006 35.7024 142.494 35.492C142.694 35.3869 142.824 35.3343 142.881 35.3343C142.938 35.3343 143.067 35.3869 143.268 35.492C143.459 35.5398 143.612 35.5924 143.727 35.6498C143.842 35.7071 143.947 35.798 144.042 35.9222C144.167 36.1708 144.258 36.4767 144.315 36.84C144.372 37.0408 144.401 37.1842 144.401 37.2702C144.401 37.3467 144.372 37.4136 144.315 37.471C144.305 37.4805 144.286 37.4996 144.258 37.5283C144.238 37.557 144.229 37.5809 144.229 37.6C144.229 37.6096 144.238 37.6144 144.258 37.6144C144.258 37.6239 144.253 37.6478 144.243 37.6861C144.234 37.7147 144.215 37.7578 144.186 37.8151C144.071 38.1784 144.014 38.4604 144.014 38.6612C144.014 38.7281 144.023 38.8094 144.042 38.905C144.138 39.1535 144.258 39.2778 144.401 39.2778C144.535 39.2778 144.688 39.1918 144.86 39.0197C145.003 38.9241 145.147 38.8763 145.29 38.8763C145.376 38.8763 145.419 38.9002 145.419 38.948C145.429 38.9575 145.448 38.9719 145.476 38.991C145.505 39.0101 145.534 39.0197 145.562 39.0197C145.601 39.0197 145.62 39.0627 145.62 39.1487C145.62 39.2252 145.601 39.3256 145.562 39.4499C145.534 39.5742 145.496 39.6745 145.448 39.751C145.381 39.8179 145.328 39.8753 145.29 39.9231C145.252 39.9709 145.233 40.0091 145.233 40.0378L145.018 40.2386C144.836 40.3437 144.621 40.3963 144.372 40.3963C144.114 40.3963 143.909 40.3437 143.756 40.2386C143.603 40.1334 143.459 40.0044 143.325 39.8514C143.192 39.6889 143.106 39.5455 143.067 39.4212L142.996 39.2778L142.58 39.5503L142.221 39.9231C142.145 40.0187 142.078 40.0665 142.02 40.0665H141.877C141.877 40.1334 141.743 40.2147 141.476 40.3103C141.208 40.4059 140.998 40.4537 140.845 40.4537ZM141.146 39.2491C141.251 39.2491 141.466 39.1296 141.791 38.8906C142.126 38.6421 142.35 38.4461 142.465 38.3027C142.503 38.2549 142.551 38.188 142.608 38.1019C142.675 38.0063 142.733 37.9346 142.781 37.8868C142.933 37.7052 143.043 37.5618 143.11 37.4566C143.187 37.3419 143.225 37.232 143.225 37.1268C143.225 37.0503 143.192 36.9452 143.125 36.8113C143.086 36.6966 143.029 36.6392 142.953 36.6392C142.914 36.6392 142.804 36.6727 142.623 36.7396C142.441 36.8448 142.226 37.0599 141.977 37.3849C141.738 37.71 141.528 38.0398 141.347 38.3744C141.165 38.709 141.074 38.9528 141.074 39.1057C141.074 39.1344 141.084 39.1631 141.103 39.1918C141.122 39.2204 141.136 39.2396 141.146 39.2491ZM148.126 40.7978C147.916 40.7405 147.644 40.5636 147.309 40.2673C147.147 40.0569 147.051 39.8705 147.022 39.708C146.994 39.5359 146.979 39.2013 146.979 38.7042C146.979 38.4748 147.094 37.9012 147.323 36.9834C147.333 36.9452 147.366 36.8161 147.424 36.5962C147.453 36.4911 147.414 36.4241 147.309 36.3955C147.204 36.3668 147.056 36.3524 146.865 36.3524C146.702 36.3524 146.606 36.3429 146.578 36.3238C146.549 36.3142 146.53 36.2712 146.52 36.1947C146.52 36.1182 146.52 36.0656 146.52 36.037C146.52 36.0083 146.497 35.9796 146.449 35.9509C146.41 35.9222 146.382 35.8936 146.363 35.8649C146.334 35.8266 146.358 35.7549 146.434 35.6498C146.511 35.5446 146.597 35.4825 146.692 35.4634C146.75 35.4538 146.874 35.4395 147.065 35.4203C147.257 35.4012 147.438 35.363 147.61 35.3056C147.792 35.2483 147.926 35.167 148.012 35.0618C148.136 34.7368 148.279 34.3926 148.442 34.0294C148.614 33.6661 148.734 33.451 148.8 33.3841C148.953 33.3076 149.092 33.2693 149.216 33.2693C149.427 33.2693 149.589 33.3554 149.704 33.5275C149.733 33.5657 149.766 33.6039 149.804 33.6422C149.843 33.6804 149.862 33.7234 149.862 33.7712C149.862 33.8382 149.828 33.9433 149.761 34.0867C149.704 34.2301 149.584 34.4643 149.403 34.7894L149.216 35.1479C149.245 35.1574 149.312 35.1622 149.417 35.1622C149.522 35.1622 149.608 35.1574 149.675 35.1479C149.886 35.1096 150.048 35.0905 150.163 35.0905C150.249 35.0905 150.311 35.0953 150.349 35.1049C150.751 35.1049 150.971 35.3247 151.009 35.7645C151.028 35.8792 150.985 35.9748 150.88 36.0513C150.784 36.1182 150.612 36.1517 150.364 36.1517C149.379 36.1899 148.882 36.2329 148.872 36.2807C148.824 36.3094 148.748 36.4576 148.643 36.7253C148.538 36.993 148.452 37.2463 148.385 37.4853C148.27 37.9824 148.213 38.4509 148.213 38.8906C148.213 39.3113 148.275 39.5837 148.399 39.708C148.437 39.7462 148.49 39.7654 148.557 39.7654C148.729 39.7654 148.973 39.6363 149.288 39.3782C149.393 39.2826 149.508 39.2348 149.632 39.2348C149.737 39.2348 149.819 39.273 149.876 39.3495C149.943 39.426 149.976 39.5264 149.976 39.6506C149.976 39.794 149.929 39.9327 149.833 40.0665C149.69 40.2864 149.474 40.468 149.188 40.6114C148.901 40.7548 148.628 40.8265 148.37 40.8265C148.256 40.8265 148.174 40.817 148.126 40.7978ZM154.65 40.6831C154.564 40.5971 154.492 40.4871 154.435 40.3533C154.387 40.2099 154.325 39.9948 154.248 39.708C154.229 39.6506 154.22 39.5694 154.22 39.4642C154.22 39.3495 154.22 39.2682 154.22 39.2204C154.181 39.3065 154.134 39.4021 154.076 39.5072C154.019 39.6028 153.962 39.6698 153.904 39.708C153.684 39.9279 153.464 40.0904 153.245 40.1956C152.939 40.3868 152.676 40.4824 152.456 40.4824C152.188 40.4824 151.959 40.3581 151.768 40.1095C151.462 39.861 151.309 39.5646 151.309 39.2204C151.309 39.1726 151.318 39.0818 151.337 38.948C151.356 38.5943 151.404 38.2549 151.481 37.9298C151.567 37.6048 151.725 37.1889 151.954 36.6823L152.384 35.8219L152.614 35.3773C152.661 35.3582 152.738 35.3486 152.843 35.3486C152.996 35.3486 153.139 35.3773 153.273 35.4347C153.407 35.492 153.479 35.5685 153.488 35.6641C153.517 35.7024 153.531 35.7741 153.531 35.8792C153.531 36.1851 153.402 36.5914 153.144 37.0981L153.029 37.3706C152.857 37.7817 152.733 38.1019 152.657 38.3314C152.58 38.5608 152.542 38.752 152.542 38.905C152.542 39.0579 152.599 39.1583 152.714 39.2061C152.762 39.2348 152.819 39.2491 152.886 39.2491C153.077 39.2491 153.307 39.1009 153.574 38.8046C153.852 38.5082 154.134 38.0111 154.42 37.3132C154.554 36.9882 154.636 36.6536 154.664 36.3094C154.645 36.2043 154.674 36.0895 154.75 35.9653C154.827 35.841 154.927 35.7406 155.051 35.6641C155.09 35.6068 155.142 35.5637 155.209 35.5351C155.276 35.4968 155.319 35.4968 155.338 35.5351L155.568 35.5207C155.596 35.5112 155.639 35.5542 155.697 35.6498C155.764 35.7454 155.811 35.8027 155.84 35.8219C155.936 35.8983 155.984 36.0513 155.984 36.2807C155.984 36.5962 155.869 37.0312 155.639 37.5857C155.458 37.9681 155.333 38.2644 155.267 38.4748C155.209 38.6755 155.176 38.8715 155.166 39.0627C155.166 39.2635 155.18 39.4212 155.209 39.5359C155.247 39.6411 155.333 39.751 155.467 39.8657C155.62 39.9709 155.682 40.2195 155.654 40.6114C155.635 40.6783 155.582 40.7309 155.496 40.7692C155.41 40.8074 155.305 40.8265 155.18 40.8265C154.97 40.8265 154.793 40.7787 154.65 40.6831ZM161.303 40.2816C161.16 40.2816 161.017 40.2434 160.873 40.1669C160.73 40.0904 160.615 39.9757 160.529 39.8227L160.457 39.6793C160.343 39.3543 160.285 39.0388 160.285 38.7329V38.1019C160.285 37.9968 160.276 37.9442 160.256 37.9442C160.18 37.9442 159.85 38.2549 159.267 38.8763C158.856 39.3065 158.497 39.6411 158.192 39.8801C157.895 40.1095 157.69 40.2242 157.575 40.2242C157.537 40.2242 157.446 40.1908 157.302 40.1239C157.159 40.0474 157.068 39.99 157.03 39.9518C156.963 39.8849 156.92 39.8036 156.901 39.708C156.882 39.6124 156.872 39.4308 156.872 39.1631C156.872 38.8572 156.934 38.513 157.059 38.1306C157.183 37.7386 157.393 37.2176 157.69 36.5675C157.766 36.4337 157.843 36.2712 157.919 36.08C158.139 35.5829 158.344 35.2387 158.536 35.0475C158.612 35.0475 158.665 35.0523 158.693 35.0618C158.818 35.0714 158.961 35.1288 159.124 35.2339C159.296 35.3391 159.401 35.4777 159.439 35.6498C159.439 35.8123 159.415 35.9748 159.367 36.1373C159.32 36.2999 159.21 36.5006 159.038 36.7396C158.932 36.883 158.794 37.1937 158.622 37.6717C158.574 37.7482 158.507 37.8677 158.421 38.0302C158.344 38.1832 158.306 38.2692 158.306 38.2883C158.316 38.2979 158.344 38.2788 158.392 38.231C158.44 38.1736 158.488 38.121 158.536 38.0732L158.923 37.6861C159.678 36.9308 160.261 36.5436 160.672 36.5245C160.883 36.5245 161.069 36.6345 161.232 36.8543C161.394 37.0742 161.475 37.3371 161.475 37.643C161.475 37.7004 161.466 37.8629 161.447 38.1306V38.948C161.667 38.8906 161.834 38.838 161.949 38.7902C162.188 38.7042 162.436 38.6516 162.694 38.6325C162.675 38.795 162.584 39.0101 162.422 39.2778C162.269 39.5455 162.087 39.7797 161.877 39.9805C161.667 40.1812 161.475 40.2816 161.303 40.2816ZM168.27 36.4528C168.309 36.5293 168.328 36.6249 168.328 36.7396C168.328 36.9595 168.256 37.165 168.113 37.3562C168.084 37.404 168.031 37.4805 167.955 37.5857C167.878 37.6813 167.811 37.7817 167.754 37.8868C167.697 37.992 167.654 38.1115 167.625 38.2453C167.596 38.427 167.539 38.6468 167.453 38.905C167.376 39.1535 167.324 39.3208 167.295 39.4069C167.219 39.6076 167.133 39.8753 167.037 40.2099L166.808 41.099C166.597 41.8255 166.353 42.3848 166.076 42.7768C165.799 43.1783 165.541 43.446 165.302 43.5798C165.178 43.6276 165.058 43.6515 164.943 43.6515C164.733 43.6515 164.513 43.5798 164.284 43.4364C164.064 43.3026 163.873 43.1161 163.71 42.8771C163.605 42.7337 163.471 42.4613 163.309 42.0598C163.146 41.6678 163.094 41.4575 163.151 41.4288C163.189 41.295 163.328 41.228 163.567 41.228C163.681 41.228 163.787 41.2424 163.882 41.2711C163.978 41.3093 164.03 41.3523 164.04 41.4001C164.126 41.6487 164.231 41.8399 164.355 41.9737C164.432 42.098 164.513 42.1936 164.599 42.2605C164.695 42.3274 164.786 42.3609 164.872 42.3609C164.929 42.3609 164.967 42.3513 164.986 42.3322C165.139 42.2175 165.254 42.0789 165.331 41.9164C165.417 41.7538 165.531 41.4527 165.675 41.0129C165.895 40.2481 166.067 39.7032 166.191 39.3782C166.22 39.273 166.267 39.1535 166.334 39.0197L166.076 39.2204C165.981 39.2969 165.875 39.3782 165.761 39.4642C165.646 39.5407 165.522 39.6076 165.388 39.665C165.321 39.751 165.154 39.794 164.886 39.794C164.685 39.794 164.494 39.7654 164.312 39.708C164.131 39.6124 163.992 39.5025 163.897 39.3782C163.811 39.2539 163.72 39.0675 163.624 38.8189C163.586 38.7424 163.567 38.6229 163.567 38.4604C163.567 38.0493 163.662 37.6096 163.854 37.1411C164.035 36.7683 164.322 36.3716 164.714 35.9509C165.106 35.5303 165.445 35.2769 165.732 35.1909C165.962 35.0762 166.201 35.0188 166.449 35.0188C166.554 35.0188 166.631 35.0284 166.679 35.0475C166.831 35.0666 166.951 35.1001 167.037 35.1479C167.123 35.1957 167.266 35.3056 167.467 35.4777C167.926 35.9366 168.194 36.2616 168.27 36.4528ZM166.32 37.8008C166.492 37.5618 166.607 37.3467 166.664 37.1555C166.731 36.9643 166.755 36.754 166.736 36.5245C166.726 36.2855 166.621 36.166 166.42 36.166C166.22 36.166 166.043 36.2234 165.89 36.3381C165.746 36.4528 165.555 36.6584 165.316 36.9547C165.173 37.1459 165.053 37.3754 164.958 37.643C164.872 37.882 164.829 38.0876 164.829 38.2597C164.829 38.47 164.886 38.599 165.001 38.6468C165.307 38.6373 165.546 38.5847 165.718 38.4891C165.89 38.3935 166.091 38.1641 166.32 37.8008Z" fill="#323232"/>
<mask id="mask0" mask-type="alpha" maskUnits="userSpaceOnUse" x="2" y="6" width="46" height="38">
<path d="M3.28599 35.9046L20.9972 8.23084C22.8362 5.35741 27.034 5.35741 28.873 8.23084L46.5841 35.9046C48.1555 38.3598 46.7438 41.6251 43.8787 42.1623C31.3587 44.5098 18.5114 44.5098 5.99144 42.1623C3.12638 41.6251 1.71466 38.3598 3.28599 35.9046Z" fill="#C4C4C4"/>
</mask>
<g mask="url(#mask0)">
<path d="M3.28599 35.9046L20.9972 8.23084C22.8362 5.35741 27.034 5.35741 28.873 8.23084L46.5841 35.9046C48.1555 38.3598 46.7438 41.6251 43.8787 42.1623C31.3587 44.5098 18.5114 44.5098 5.99144 42.1623C3.12638 41.6251 1.71466 38.3598 3.28599 35.9046Z" fill="#4D7D0F"/>
<path d="M0 41.0389L21.6291 19.4098C23.4549 17.584 26.4152 17.584 28.241 19.4098L49.8701 41.0389L46.4753 41.6755C32.2392 44.3448 17.6309 44.3448 3.39484 41.6755L0 41.0389Z" fill="#64A30C"/>
<path d="M0 41.039L23.0611 30.9497C24.2558 30.4271 25.6144 30.4271 26.809 30.9497L49.8701 41.039C33.4987 45.1318 16.3714 45.1318 0 41.039Z" fill="#85CC16"/>
</g>
</svg>
